# xmcd
#
# Track frame offsets: 
#        150
#        20865
#        45923
#        68755
#        91955
#        113552
#        130838
#        155718
#        175063
#        197401
#        218578
#        240125
#
# Disc length: 3300 seconds
#
# Revision: 0
# Processed by: cddbd v1.5.2PL0 Copyright (c) Steve Scherf et al.
# Submitted via: ExactAudioCopy v1.0b1
#
DISCID=900ce20c
DTITLE=阿部芙蓉美 - ブルーズ
DYEAR=2008
DGENRE=JPop
TTITLE0=ドライフラワー
TTITLE1=on saturday
TTITLE2=群青 ~album mix
TTITLE3=太陽 (the swelling sun)
TTITLE4=開け放つ窓 ~piano version
TTITLE5=trip -うちへかえろ-
TTITLE6=さみしいときはどうしている
TTITLE7=なみだは乾かない
TTITLE8=青春と路地
TTITLE9=ぼくら平凡
TTITLE10=chill
TTITLE11=planetary
EXTD=
EXTT0=
EXTT1=
EXTT2=
EXTT3=
EXTT4=
EXTT5=
EXTT6=
EXTT7=
EXTT8=
EXTT9=
EXTT10=
EXTT11=
PLAYORDER=
